# xmcd CD database file
#
# Track frame offsets:
#	150
#	37383
#	64705
#	116339
#	143350
#	173709
#	196673
#	217352
#
# Disc length: 3821 seconds
#
# Revision: 0
# Processed by: cddbd v1.5.2PL0 Copyright (c) Steve Scherf et al.
# Submitted via: CDex 1.82
#
DISCID=720eeb08
DTITLE=Sun Ra - New Steps
DYEAR=1978
DGENRE=Jazz
TTITLE0=My Favorite Things
TTITLE1=Moon People
TTITLE2=Sun Steps
TTITLE3=Exactly Like You
TTITLE4=Friend and Friendship
TTITLE5=Rome At Twilight
TTITLE6=When There Is No Sun
TTITLE7=The Horo
EXTD=YEAR: 1978
EXTT0=
EXTT1=
EXTT2=
EXTT3=
EXTT4=
EXTT5=
EXTT6=
EXTT7=
PLAYORDER=
